<?xml version="1.0" encoding="utf-8"?>
<svg xmlns="http://www.w3.org/2000/svg" width="1914px" zoomAndPan="magnify" viewBox="675.699 359.635 88.641 89.801" height="1080px" preserveAspectRatio="xMidYMid meet" version="1.0">
  <defs>
    <clipPath id="340922dced">
      <path d="M 675.605469 407.300781 L 717.898438 407.300781 L 717.898438 449.59375 L 675.605469 449.59375 Z M 675.605469 407.300781 " clip-rule="nonzero"/>
    </clipPath>
    <clipPath id="7799fda80e">
      <path d="M 722.101562 407.300781 L 764.394531 407.300781 L 764.394531 449.59375 L 722.101562 449.59375 Z M 722.101562 407.300781 " clip-rule="nonzero"/>
    </clipPath>
    <clipPath id="da2bd8c506">
      <path d="M 675.605469 359.625 L 717.898438 359.625 L 717.898438 401.917969 L 675.605469 401.917969 Z M 675.605469 359.625 " clip-rule="nonzero"/>
    </clipPath>
    <clipPath id="f9fd6c01eb">
      <path d="M 722.101562 359.625 L 764.394531 359.625 L 764.394531 401.917969 L 722.101562 401.917969 Z M 722.101562 359.625 " clip-rule="nonzero"/>
    </clipPath>
  </defs>
  <g clip-path="url(#340922dced)">
    <path fill="#044cac" d="M 675.605469 407.300781 L 717.898438 407.300781 L 717.898438 449.59375 L 675.605469 449.59375 Z M 675.605469 407.300781 " fill-opacity="1" fill-rule="nonzero"/>
  </g>
  <g clip-path="url(#7799fda80e)">
    <path fill="#044cac" d="M 722.101562 407.300781 L 764.394531 407.300781 L 764.394531 449.59375 L 722.101562 449.59375 Z M 722.101562 407.300781 " fill-opacity="1" fill-rule="nonzero"/>
  </g>
  <g clip-path="url(#da2bd8c506)">
    <path fill="#044cac" d="M 675.605469 359.625 L 717.898438 359.625 L 717.898438 401.917969 L 675.605469 401.917969 Z M 675.605469 359.625 " fill-opacity="1" fill-rule="nonzero"/>
  </g>
  <g clip-path="url(#f9fd6c01eb)">
    <path fill="#044cac" d="M 722.101562 359.625 L 764.394531 359.625 L 764.394531 401.917969 L 722.101562 401.917969 Z M 722.101562 359.625 " fill-opacity="1" fill-rule="nonzero"/>
  </g>
</svg>